<svg width="25" height="25" viewBox="0 0 25 25" fill="none" xmlns="http://www.w3.org/2000/svg">
<path d="M12.25 17.1391C14.95 17.1391 17.1389 14.9502 17.1389 12.2502C17.1389 9.55016 14.95 7.36133 12.25 7.36133C9.54997 7.36133 7.36115 9.55016 7.36115 12.2502C7.36115 14.9502 9.54997 17.1391 12.25 17.1391Z" stroke="#484848" stroke-width="2.5" stroke-linecap="round" stroke-linejoin="round"/>
<path d="M1.25 17.1389V7.36111C1.25 3.98604 3.98604 1.25 7.36111 1.25H17.1389C20.5139 1.25 23.25 3.98604 23.25 7.36111V17.1389C23.25 20.5139 20.5139 23.25 17.1389 23.25H7.36111C3.98604 23.25 1.25 20.5139 1.25 17.1389Z" stroke="#484848" stroke-width="2.5"/>
<path d="M18.9722 5.54069L18.9851 5.52637" stroke="#484848" stroke-width="2.5" stroke-linecap="round" stroke-linejoin="round"/>
</svg>
