<svg width="29" height="24" viewBox="0 0 29 24" fill="none" xmlns="http://www.w3.org/2000/svg">
<path d="M27.2501 1.26189C27.2501 1.26189 24.8653 2.67075 23.5392 3.07007C22.8274 2.25167 21.8815 1.67161 20.8293 1.40834C19.7771 1.14508 18.6695 1.21129 17.6562 1.59806C16.6429 1.98482 15.7728 2.67345 15.1637 3.57082C14.5544 4.4682 14.2356 5.53101 14.2501 6.61552V7.79734C12.1732 7.85119 10.1153 7.39057 8.2595 6.4565C6.40372 5.52243 4.80777 4.14391 3.61376 2.44371C3.61376 2.44371 -1.11351 13.0801 9.52285 17.8074C7.08893 19.4595 4.18949 20.2879 1.25012 20.171C11.8865 26.0801 24.8865 20.171 24.8865 6.58007C24.8854 6.25087 24.8537 5.92249 24.7919 5.59916C25.9981 4.40965 27.2501 1.26189 27.2501 1.26189Z" stroke="#484848" stroke-width="2.5" stroke-linecap="round" stroke-linejoin="round"/>
</svg>
