<svg width="30" height="22" viewBox="0 0 30 22" fill="none" xmlns="http://www.w3.org/2000/svg">
<path d="M17.45 10.8355L12.725 13.5355V8.1355L17.45 10.8355Z" fill="#484848" stroke="#484848" stroke-width="2.5" stroke-linecap="round" stroke-linejoin="round"/>
<path d="M1.25 11.7903V9.87988C1.25 5.97115 1.25 4.01681 2.47241 2.75933C3.69484 1.50184 5.61936 1.44741 9.46838 1.33855C11.2923 1.28696 13.1554 1.25 14.75 1.25C16.3446 1.25 18.2078 1.28696 20.0316 1.33855C23.8806 1.44741 25.8051 1.50184 27.0276 2.75933C28.25 4.01681 28.25 5.97115 28.25 9.87988V11.7903C28.25 15.6989 28.25 17.6533 27.0276 18.9107C25.8051 20.1682 23.8807 20.2226 20.0317 20.3316C18.2078 20.3831 16.3446 20.4201 14.75 20.4201C13.1554 20.4201 11.2922 20.3831 9.46826 20.3316C5.61929 20.2226 3.69481 20.1682 2.4724 18.9107C1.25 17.6533 1.25 15.6989 1.25 11.7903Z" stroke="#484848" stroke-width="2.5"/>
</svg>
